<svg id="errwahi2txj1" xmlns="http://www.w3.org/2000/svg" xmlns:xlink="http://www.w3.org/1999/xlink" viewBox="0 0 540.590000 114.090000" shape-rendering="geometricPrecision" text-rendering="geometricPrecision">
    <!--<style><![CDATA[#errwahi2txj4 {animation: errwahi2txj4_f_o 5000ms linear infinite normal forwards}#errwahi2txj5 {animation: errwahi2txj5_f_o 5000ms linear infinite normal forwards}@keyframes errwahi2txj5_f_o { 0% {fill-opacity: 1} 5% {fill-opacity: 0} 9% {fill-opacity: 1} 42.500000% {fill-opacity: 0} 46.500000% {fill-opacity: 1} 100% {fill-opacity: 1} }#errwahi2txj6 {animation: errwahi2txj6_f_o 5000ms linear infinite normal forwards}@keyframes errwahi2txj6_f_o { 0% {fill-opacity: 1} 9% {fill-opacity: 0} 13% {fill-opacity: 1} 100% {fill-opacity: 1} }#errwahi2txj7 {animation: errwahi2txj7_f_o 5000ms linear infinite normal forwards}@keyframes errwahi2txj7_f_o { 0% {fill-opacity: 1} 13.500000% {fill-opacity: 0} 17.500000% {fill-opacity: 1} 46.500000% {fill-opacity: 0} 50.500000% {fill-opacity: 1} 100% {fill-opacity: 1} }#errwahi2txj8 {animation: errwahi2txj8_f_o 5000ms linear infinite normal forwards}@keyframes errwahi2txj8_f_o { 0% {fill-opacity: 1} 17.500000% {fill-opacity: 0} 21.500000% {fill-opacity: 1} 100% {fill-opacity: 1} }#errwahi2txj9 {animation: errwahi2txj9_f_o 5000ms linear infinite normal forwards}@keyframes errwahi2txj9_f_o { 0% {fill-opacity: 1} 21.500000% {fill-opacity: 0} 25.500000% {fill-opacity: 1} 50.500000% {fill-opacity: 0} 54.500000% {fill-opacity: 1} 100% {fill-opacity: 1} }#errwahi2txj10 {animation: errwahi2txj10_f_o 5000ms linear infinite normal forwards}@keyframes errwahi2txj10_f_o { 0% {fill-opacity: 1} 25.500000% {fill-opacity: 0} 29.500000% {fill-opacity: 1} 100% {fill-opacity: 1} }#errwahi2txj11 {animation: errwahi2txj11_f_o 5000ms linear infinite normal forwards}@keyframes errwahi2txj11_f_o { 0% {fill-opacity: 1} 29.500000% {fill-opacity: 0} 33.500000% {fill-opacity: 1} 54.500000% {fill-opacity: 0} 58.500000% {fill-opacity: 1} 100% {fill-opacity: 1} }#errwahi2txj12_to {animation: errwahi2txj12_to__to 5000ms linear infinite normal forwards}@keyframes errwahi2txj12_to__to { 0% {transform: translate(0px,0px);animation-timing-function: cubic-bezier(0.470000,0,0.745000,0.715000)} 33% {transform: translate(-18px,0px)} 39% {transform: translate(0px,0px);animation-timing-function: cubic-bezier(0.470000,0,0.745000,0.715000)} 42% {transform: translate(0px,0px)} 100% {transform: translate(0px,0px)} }#errwahi2txj12 {animation: errwahi2txj12_f_o 5000ms linear infinite normal forwards}@keyframes errwahi2txj12_f_o { 0% {fill-opacity: 1} 35% {fill-opacity: 0} 39% {fill-opacity: 1} 100% {fill-opacity: 1} }#errwahi2txj14 {animation: errwahi2txj14_f_o 5000ms linear infinite normal forwards}@keyframes errwahi2txj14_f_o { 0% {fill-opacity: 1} 19% {fill-opacity: 0} 25% {fill-opacity: 1} 91% {fill-opacity: 0} 93.500000% {fill-opacity: 1} 100% {fill-opacity: 1} }#errwahi2txj15 {animation: errwahi2txj15_f_o 5000ms linear infinite normal forwards}@keyframes errwahi2txj15_f_o { 0% {fill-opacity: 1} 26% {fill-opacity: 0} 31.500000% {fill-opacity: 1} 94% {fill-opacity: 0} 96.500000% {fill-opacity: 1} 100% {fill-opacity: 1} }#errwahi2txj16 {animation: errwahi2txj16_f_o 5000ms linear infinite normal forwards}@keyframes errwahi2txj16_f_o { 0% {fill-opacity: 1} 1% {fill-opacity: 1} 5.500000% {fill-opacity: 0} 7.500000% {fill-opacity: 1} 82% {fill-opacity: 0} 84.500000% {fill-opacity: 1} 100% {fill-opacity: 1} }#errwahi2txj17 {animation: errwahi2txj17_f_o 5000ms linear infinite normal forwards}@keyframes errwahi2txj17_f_o { 0% {fill-opacity: 1} 32.500000% {fill-opacity: 0} 38% {fill-opacity: 1} 96.500000% {fill-opacity: 0} 99% {fill-opacity: 1} 100% {fill-opacity: 1} }#errwahi2txj18 {animation: errwahi2txj18_f_o 5000ms linear infinite normal forwards}@keyframes errwahi2txj18_f_o { 0% {fill-opacity: 1} 5% {fill-opacity: 0} 10% {fill-opacity: 1} 85% {fill-opacity: 0} 87.500000% {fill-opacity: 1} 100% {fill-opacity: 1} }#errwahi2txj19 {animation: errwahi2txj19_f_o 5000ms linear infinite normal forwards}@keyframes errwahi2txj19_f_o { 0% {fill-opacity: 1} 12% {fill-opacity: 0} 17.500000% {fill-opacity: 1} 88% {fill-opacity: 0} 90.500000% {fill-opacity: 1} 100% {fill-opacity: 1} }#errwahi2txj20 {animation: errwahi2txj20_f_o 5000ms linear infinite normal forwards}@keyframes errwahi2txj20_f_o { 0% {fill-opacity: 1} 45.500000% {fill-opacity: 0} 51% {fill-opacity: 1} 90.500000% {fill-opacity: 0} 93% {fill-opacity: 1} 100% {fill-opacity: 1} }#errwahi2txj21 {animation: errwahi2txj21_f_o 5000ms linear infinite normal forwards}@keyframes errwahi2txj21_f_o { 0% {fill-opacity: 1} 39% {fill-opacity: 0} 45% {fill-opacity: 1} 93.500000% {fill-opacity: 0} 96% {fill-opacity: 1} 100% {fill-opacity: 1} }#errwahi2txj22 {animation: errwahi2txj22_f_o 5000ms linear infinite normal forwards}@keyframes errwahi2txj22_f_o { 0% {fill-opacity: 1} 64% {fill-opacity: 0} 69.500000% {fill-opacity: 1} 81.500000% {fill-opacity: 0} 84% {fill-opacity: 1} 100% {fill-opacity: 1} }#errwahi2txj23 {animation: errwahi2txj23_f_o 5000ms linear infinite normal forwards}@keyframes errwahi2txj23_f_o { 0% {fill-opacity: 1} 70% {fill-opacity: 0} 76% {fill-opacity: 1} 79% {fill-opacity: 0} 81.500000% {fill-opacity: 1} 100% {fill-opacity: 1} }#errwahi2txj24 {animation: errwahi2txj24_f_o 5000ms linear infinite normal forwards}@keyframes errwahi2txj24_f_o { 0% {fill-opacity: 1} 58% {fill-opacity: 0} 64% {fill-opacity: 1} 84.500000% {fill-opacity: 0} 87% {fill-opacity: 1} 100% {fill-opacity: 1} }#errwahi2txj25 {animation: errwahi2txj25_f_o 5000ms linear infinite normal forwards}@keyframes errwahi2txj25_f_o { 0% {fill-opacity: 1} 51% {fill-opacity: 0} 56.500000% {fill-opacity: 1} 87.500000% {fill-opacity: 0} 90% {fill-opacity: 1} 100% {fill-opacity: 1} }]]></style>-->
    <g id="errwahi2txj2" onclick="window.open('https://www.mobildev.com/', '_blank');">
        <g id="errwahi2txj3">
            <path id="errwahi2txj4" d="M144.790000,48.600000L156.230000,48.600000L155.600000,53.440000L156.210000,53.440000C158.420000,49.690000,163.070000,47.780000,170.080000,47.780000C173.182481,47.644645,176.278116,48.173085,179.160000,49.330000C181.334917,50.422016,183.027430,52.281998,183.910000,54.550000C185.088783,52.261338,186.990675,50.426241,189.320000,49.330000C192.347735,48.183477,195.574815,47.656399,198.810000,47.780000C201.542235,47.691184,204.271628,48.028563,206.900000,48.780000C208.806900,49.290688,210.506264,50.385134,211.760000,51.910000C212.916260,53.347040,213.647170,55.079053,213.870000,56.910000C213.957399,58.088382,213.957399,59.271618,213.870000,60.450000C213.780000,61.900000,213.600000,63.730000,213.340000,65.930000L211.340000,81.050000L199.210000,81.050000L201.210000,65.930000C201.472339,64.276174,201.606073,62.604499,201.610000,60.930000C201.602898,60.109411,201.309315,59.317091,200.780000,58.690000C199.780000,57.510000,197.560000,56.940000,194.190000,56.940000C190.650000,56.940000,188.190000,57.580000,186.720000,58.940000C185.900293,59.761309,185.280927,60.760508,184.910000,61.860000C184.658254,62.626571,184.454525,63.408085,184.300000,64.200000C184.130000,65.200000,183.940000,66.310000,183.760000,67.640000L182,81L169.850000,81L171.850000,65.880000C172.126493,64.227762,172.263643,62.555209,172.260000,60.880000C172.278807,60.080929,172.012986,59.301187,171.510000,58.680000C170.570000,57.530000,168.410000,56.920000,165.030000,56.920000C161.410000,56.920000,158.840000,57.550000,157.350000,58.860000C156.530901,59.714608,155.909586,60.738754,155.530000,61.860000C155.295170,62.602070,155.101541,63.356555,154.950000,64.120000C154.750000,65.120000,154.580000,66.350000,154.380000,67.680000L152.650000,81L140.530000,81Z" transform="matrix(1 0 0 1 -0.53000000000000 0.00581578000001)" fill="rgb(63,137,201)" fill-rule="evenodd" stroke="none" stroke-width="1"/>
            <path id="errwahi2txj5" d="M246.570000,47.780000C250.706252,47.704586,254.842771,47.915088,258.950000,48.410000C261.131676,48.640393,263.216254,49.432877,265,50.710000C266.415140,51.865520,267.352086,53.504284,267.630000,55.310000C267.936266,58.269129,267.842084,61.256044,267.350000,64.190000C266.910000,67.380000,266.550000,69.650000,266.220000,71.030000C265.863551,72.408686,265.371137,73.748587,264.750000,75.030000C263.161810,78.053179,260.276871,80.182802,256.920000,80.810000C254.940862,81.207190,252.935665,81.461182,250.920000,81.570000C248.420000,81.730000,245.490000,81.860000,242.080000,81.860000C237.735688,81.963678,233.389788,81.736354,229.080000,81.180000C226.936243,80.960389,224.911643,80.087716,223.280000,78.680000C221.941874,77.367270,221.130805,75.609954,221,73.740000C220.720000,71.740000,220.920000,68.360000,221.550000,63.740000C221.789348,61.697731,222.146611,59.671013,222.620000,57.670000C222.993223,56.299433,223.587709,54.998994,224.380000,53.820000C225.978113,51.415566,228.418102,49.696158,231.220000,49C233.248721,48.564899,235.302763,48.257628,237.370000,48.080000C240,47.850000,243,47.780000,246.570000,47.780000ZM245.460000,56.900000C241.460000,56.900000,238.690000,57.160000,237.250000,57.820000C236.179037,58.290683,235.300670,59.112609,234.760000,60.150000C234.085646,61.689683,233.660338,63.326779,233.500000,65C233.218409,66.500832,233.181263,68.037314,233.390000,69.550000C233.650708,70.486876,234.313706,71.259763,235.200000,71.660000C236.630000,72.360000,239.390000,72.740000,243.350000,72.740000C247.910000,72.740000,250.910000,72.240000,252.350000,71.280000C253.790000,70.320000,254.720000,68.140000,255.140000,64.730000C255.458212,63.182859,255.458212,61.587141,255.140000,60.040000C254.892149,59.070036,254.197983,58.275643,253.270000,57.900000C251.800000,57.230000,249.210000,56.900000,245.460000,56.900000Z" fill="rgb(63,137,201)" fill-rule="evenodd" stroke="none" stroke-width="1"/>
            <path id="errwahi2txj6" d="M279.370000,35.310000L291.530000,35.310000L289.190000,52.910000L289.730000,52.910000C291.029627,51.091769,292.839241,49.699759,294.930000,48.910000C297.880700,48.054781,300.950476,47.683301,304.020000,47.810000C307.180814,47.748515,310.340631,47.976129,313.460000,48.490000C315.463578,48.798055,317.363677,49.583475,319,50.780000C320.418678,51.972148,321.347952,53.645553,321.610000,55.480000C321.910930,58.568697,321.789817,61.683989,321.250000,64.740000C320.890000,67.590000,320.530000,69.660000,320.250000,71.030000C319.907759,72.412024,319.393758,73.745739,318.720000,75C317.454711,77.517795,315.248954,79.436157,312.580000,80.340000C310.862059,80.918952,309.084052,81.301391,307.280000,81.480000C304.808846,81.786369,302.319930,81.926684,299.830000,81.900000C294.210000,81.900000,290.420000,81.220000,288.410000,79.900000C287.328363,79.095563,286.493528,78.004387,286,76.750000L285.350000,76.750000L284.860000,81L273.350000,81ZM299.470000,56.900000C295.330000,56.900000,292.470000,57.270000,290.930000,58.020000C289.956563,58.463918,289.188074,59.261001,288.780000,60.250000C288.147008,61.762829,287.755571,63.365696,287.620000,65C287.323517,66.588204,287.306596,68.215976,287.570000,69.810000C287.893896,70.820702,288.706436,71.599387,289.730000,71.880000C292.286418,72.609157,294.944640,72.916524,297.600000,72.790000C301.840000,72.790000,304.720000,72.290000,306.280000,71.430000C307.132860,70.900039,307.770538,70.085229,308.080000,69.130000C308.655954,67.667022,309.013125,66.127140,309.140000,64.560000C309.451435,63.039113,309.451435,61.470887,309.140000,59.950000C308.916819,58.978367,308.198865,58.195835,307.250000,57.890000C305.720000,57.200000,303.130000,56.900000,299.470000,56.900000Z" fill="rgb(63,137,201)" fill-rule="evenodd" stroke="none" stroke-width="1"/>
            <path id="errwahi2txj7" d="M331.600000,48.600000L343.740000,48.600000L339.460000,81L327.340000,81ZM333.320000,35.310000L345.440000,35.310000L344.280000,44.430000L332.140000,44.430000Z" fill="rgb(63,137,201)" fill-rule="evenodd" stroke="none" stroke-width="1"/>
            <polygon id="errwahi2txj8" points="354.460000,35.310000 366.600000,35.310000 360.560000,80.990000 348.420000,80.990000 354.460000,35.310000" fill="rgb(63,137,201)" fill-rule="evenodd" stroke="none" stroke-width="1"/>
            <path id="errwahi2txj9" d="M420.360000,35.310000L414.360000,80.990000L402.870000,80.990000L403.460000,76.750000L402.780000,76.750000C401.969077,78.038300,400.852736,79.106552,399.530000,79.860000C398.060885,80.608589,396.480556,81.115105,394.850000,81.360000C392.517001,81.713570,390.159548,81.880765,387.800000,81.860000C384.448471,81.937562,381.097776,81.672857,377.800000,81.070000C375.839180,80.752588,374.025508,79.833522,372.610000,78.440000C371.353767,77.106768,370.588504,75.385808,370.440000,73.560000C370.241067,70.553405,370.385330,67.533934,370.870000,64.560000C371.113007,62.297736,371.530924,60.057699,372.120000,57.860000C372.567443,56.281285,373.241097,54.775668,374.120000,53.390000C375.841441,50.895544,378.467222,49.170133,381.440000,48.580000C385.065672,47.903751,388.753478,47.618784,392.440000,47.730000C396.780000,47.730000,399.790000,48.030000,401.520000,48.730000C403.330478,49.526354,404.743593,51.018777,405.440000,52.870000L406,52.870000L408.310000,35.270000ZM395.170000,56.900000C390.480000,56.900000,387.340000,57.340000,385.850000,58.270000C384.360000,59.200000,383.410000,61.270000,382.980000,64.480000C382.685098,66.188330,382.651380,67.931543,382.880000,69.650000C383.175005,70.655289,383.910836,71.472062,384.880000,71.870000C386.270000,72.430000,388.800000,72.750000,392.380000,72.750000C396.860000,72.750000,399.910000,72.250000,401.560000,71.310000C402.409698,70.838973,403.067740,70.085409,403.420000,69.180000C403.936488,67.778284,404.272520,66.316545,404.420000,64.830000C404.693555,63.241693,404.693555,61.618307,404.420000,60.030000C404.174612,59.048743,403.492770,58.234218,402.570000,57.820000C401.130000,57.160000,398.700000,56.900000,395.170000,56.900000Z" fill="rgb(63,137,201)" fill-rule="evenodd" stroke="none" stroke-width="1"/>
            <path id="errwahi2txj10" d="M455.510000,70.670000L467.580000,70.670000C466.800000,74.130000,465.390000,76.670000,463.350000,78.210000C461.290006,79.714988,458.881243,80.671611,456.350000,80.990000C452.051933,81.672890,447.700734,81.964086,443.350000,81.860000C439.760706,81.929394,436.171818,81.701953,432.620000,81.180000C430.575447,80.856365,428.643853,80.028048,427,78.770000C425.608562,77.566898,424.699287,75.901078,424.440000,74.080000C424.151392,71.038966,424.258958,67.973327,424.760000,64.960000C425.010011,62.599958,425.427734,60.260711,426.010000,57.960000C426.397508,56.507896,427.008113,55.124757,427.820000,53.860000C429.597408,51.213009,432.378873,49.406863,435.520000,48.860000C438.520000,48.170000,443.050000,47.860000,449.190000,47.860000C451.870000,47.860000,454.190000,47.860000,456.060000,47.960000C457.930000,48.060000,459.430000,48.240000,460.500000,48.420000C464.300000,49.060000,466.820000,50.540000,468,52.780000C469.180000,55.020000,469.430000,58.910000,468.730000,64.240000L468.230000,67.490000L436.520000,67.490000C436.336502,68.657124,436.279505,69.840644,436.350000,71.020000C436.469484,71.738446,436.846245,72.388892,437.410000,72.850000C438.490000,73.740000,441.160000,74.190000,445.410000,74.190000C447.416494,74.235027,449.423285,74.114620,451.410000,73.830000C452.482176,73.774858,453.519174,73.429192,454.410000,72.830000C454.958446,72.218033,455.337616,71.473480,455.510000,70.670000ZM457,60.810000C457.181443,59.947600,457.198407,59.058694,457.050000,58.190000C457.039986,57.716865,456.854682,57.264295,456.530000,56.920000C455.630000,55.840000,452.890000,55.310000,448.350000,55.310000C444.250000,55.310000,441.510000,55.680000,440.130000,56.310000C439.376008,56.686556,438.747313,57.273569,438.320000,58C437.802640,58.846032,437.490958,59.801629,437.410000,60.790000Z" fill="rgb(63,137,201)" fill-rule="evenodd" stroke="none" stroke-width="1"/>
            <polygon id="errwahi2txj11" points="474.720000,48.600000 488.500000,48.600000 495.560000,71.640000 508.600000,48.600000 522.370000,48.600000 502.130000,80.990000 486.440000,80.990000 474.720000,48.600000" fill="rgb(63,137,201)" fill-rule="evenodd" stroke="none" stroke-width="1"/>
            <g id="errwahi2txj12_to" transform="translate(0,0)">
                <path id="errwahi2txj12" d="M534.780000,36.440000C536.063771,36.386922,537.349673,36.457244,538.620000,36.650000C539.181246,36.669603,539.716917,36.889547,540.130000,37.270000C540.300015,37.486713,540.425735,37.734756,540.500000,38C540.542145,38.177764,540.572214,38.358176,540.590000,38.540000L540.590000,39.280000C540.541839,40.131038,540.448373,40.978906,540.310000,41.820000C540.179171,42.835003,539.968518,43.838111,539.680000,44.820000C539.515805,45.383099,539.217240,45.897867,538.810000,46.320000C538.345179,46.688854,537.781411,46.911577,537.190000,46.960000C536.012852,47.143941,534.820039,47.207602,533.630000,47.150000L529.800000,47.150000C529.560000,47.150000,529.280000,47.080000,529.080000,47.070000C528.658044,47.055804,528.243210,46.957196,527.860000,46.780000C527.557794,46.686621,527.294410,46.496985,527.110000,46.240000C526.839321,45.834098,526.693323,45.357866,526.690000,44.870000C526.722195,43.833171,526.832507,42.800244,527.020000,41.780000C527.153787,40.550929,527.456647,39.346219,527.920000,38.200000C528.301223,37.347460,529.127443,36.779917,530.060000,36.730000C530.683596,36.590860,531.321101,36.523754,531.960000,36.530000C532.670000,36.460000,533.630000,36.440000,534.780000,36.440000ZM533.780000,37.560000C532.340000,37.560000,531.320000,37.560000,530.780000,37.640000C530.310874,37.722012,529.862400,37.895286,529.460000,38.150000C529.160049,38.448899,528.937015,38.816047,528.810000,39.220000C528.591777,40.024174,528.431367,40.842931,528.330000,41.670000C528.172415,42.542779,528.068885,43.424457,528.020000,44.310000C527.992145,44.663052,528.083710,45.015226,528.280000,45.310000C528.404259,45.503551,528.591440,45.648351,528.810000,45.720000C529.011365,45.766847,529.214955,45.803560,529.420000,45.830000C529.605511,45.880659,529.798006,45.900922,529.990000,45.890000L533.140000,45.950000L534.760000,45.950000C535.260000,45.950000,535.760000,45.900000,536.210000,45.890000C536.526651,45.875519,536.841304,45.832003,537.150000,45.760000C537.445735,45.703315,537.723528,45.576422,537.960000,45.390000C538.174895,45.177759,538.341958,44.922051,538.450000,44.640000C538.762526,43.662029,538.986757,42.658011,539.120000,41.640000C539.283199,40.685391,539.363498,39.718452,539.360000,38.750000C539.348430,38.491788,539.237330,38.248086,539.050000,38.070000C538.849919,37.862498,538.585656,37.728604,538.300000,37.690000C538.141270,37.624971,537.971531,37.591023,537.800000,37.590000L537.240000,37.590000L535.170000,37.590000ZM529,44.910000L529.930000,38.680000L536.220000,38.680000L536.880000,38.680000C537.115297,38.686973,537.343936,38.759722,537.540000,38.890000C537.750837,39.029692,537.900912,39.244084,537.960000,39.490000C538.028632,39.876981,538.028632,40.273019,537.960000,40.660000C537.933862,41.138206,537.796925,41.603790,537.560000,42.020000C537.295622,42.285968,536.934993,42.433826,536.560000,42.430000C537.050000,42.510000,537.310000,42.640000,537.410000,42.830000C537.507778,43.288175,537.507778,43.761825,537.410000,44.220000L537.300000,44.890000L535.190000,44.890000L535.240000,44.480000C535.330000,43.940000,535.330000,43.590000,535.240000,43.480000C535.210092,43.395395,535.129731,43.339143,535.040000,43.340000L534.740000,43.340000L534.230000,43.340000L531.480000,43.340000L531.250000,44.890000ZM531.640000,41.710000L534.360000,41.710000C534.729636,41.734098,535.100769,41.700358,535.460000,41.610000C535.600000,41.530000,535.700000,41.320000,535.720000,40.980000C535.740000,40.640000,535.720000,40.490000,535.660000,40.400000C535.297071,40.375766,534.932929,40.375766,534.570000,40.400000L531.830000,40.400000Z" transform="translate(0,0)" fill="rgb(63,137,201)" fill-rule="evenodd" stroke="none" stroke-width="1"/>
            </g>
        </g>
        <g id="errwahi2txj13">
            <polygon id="errwahi2txj14" points="29.900000,44.040000 25.610000,60.550000 9.270000,70.300000 0,64.280000 6.260000,49.260000 21.770000,40.290000 29.900000,44.040000" fill="rgb(63,137,201)" stroke="none" stroke-width="1"/>
            <polygon id="errwahi2txj15" points="57.920000,13.620000 54.930000,27.190000 37.260000,36.670000 28.680000,32.750000 31.710000,21.220000 46.170000,11.590000 57.920000,13.620000" fill="rgb(63,137,201)" stroke="none" stroke-width="1"/>
            <polygon id="errwahi2txj16" points="81.910000,37.270000 79.260000,56.220000 99.740000,64.780000 127.610000,51.640000 127.990000,29.400000 106.420000,24.750000 81.910000,37.270000" fill="rgb(63,137,201)" stroke="none" stroke-width="1"/>
            <polygon id="errwahi2txj17" points="66.030000,11.920000 63.320000,25.640000 78.230000,31.070000 100.600000,17.460000 101.260000,2.980000 86.330000,0 66.030000,11.920000" fill="rgb(63,137,201)" stroke="none" stroke-width="1"/>
            <polygon id="errwahi2txj18" points="47.160000,77.470000 42.710000,98.960000 60.700000,114.090000 89.150000,101.580000 92.380000,73.960000 72.990000,65.830000 47.160000,77.470000" fill="rgb(63,137,201)" stroke="none" stroke-width="1"/>
            <polygon id="errwahi2txj19" points="34.460000,97.130000 13.920000,107.360000 2.110000,96.450000 9.490000,78.330000 27.740000,68.720000 38.930000,76.790000 34.460000,97.130000" fill="rgb(63,137,201)" stroke="none" stroke-width="1"/>
            <polygon id="errwahi2txj20" points="44.460000,48.160000 43.250000,52.820000 38.660000,55.540000 36.040000,53.870000 37.800000,49.660000 42.180000,47.100000 44.460000,48.160000" transform="matrix(0.99939082701910 -0.03489949670250 0.03489949670250 0.99939082701910 0 0)" fill="rgb(63,137,201)" stroke="none" stroke-width="1"/>
            <polygon id="errwahi2txj21" points="52.360000,39.580000 51.530000,43.380000 46.550000,46.100000 44.130000,45 44.980000,41.730000 49.050000,39.030000 52.360000,39.580000" transform="matrix(0.99939082701910 -0.03489949670250 0.03489949670250 0.99939082701910 0 0)" fill="rgb(63,137,201)" stroke="none" stroke-width="1"/>
            <polygon id="errwahi2txj22" points="59.150000,46.240000 58.370000,51.580000 64.170000,54 72.010000,50.280000 72.120000,44.040000 66.050000,42.730000 59.150000,46.240000" transform="matrix(0.99939082701910 -0.03489949670250 0.03489949670250 0.99939082701910 0 0)" fill="rgb(63,137,201)" stroke="none" stroke-width="1"/>
            <polygon id="errwahi2txj23" points="54.620000,39.100000 53.890000,42.980000 58.090000,44.500000 64.400000,40.660000 64.580000,36.570000 60.380000,35.750000 54.620000,39.100000" transform="matrix(0.99939082701910 -0.03489949670250 0.03489949670250 0.99939082701910 0 0)" fill="rgb(63,137,201)" stroke="none" stroke-width="1"/>
            <polygon id="errwahi2txj24" points="49.330000,57.560000 48.080000,63.630000 53.150000,67.940000 61.150000,64.390000 62.080000,56.590000 56.610000,54.280000 49.330000,57.560000" transform="matrix(0.99939082701910 -0.03489949670250 0.03489949670250 0.99939082701910 0 0)" fill="rgb(63,137,201)" stroke="none" stroke-width="1"/>
            <polygon id="errwahi2txj25" points="45.760000,63.130000 39.960000,66.020000 36.630000,62.930000 38.710000,57.820000 43.880000,55.120000 47,57.360000 45.760000,63.130000" transform="matrix(0.99939082701910 -0.03489949670250 0.03489949670250 0.99939082701910 0 0)" fill="rgb(63,137,201)" stroke="none" stroke-width="1"/>
        </g>
    </g>
</svg>